<?xml version="1.0" encoding="UTF-8" standalone="no"?>
<!-- Created with Inkscape (http://www.inkscape.org/) -->

<svg
   width="210mm"
   height="297mm"
   viewBox="0 0 210 297"
   version="1.1"
   id="svg1"
   xml:space="preserve"
   inkscape:export-filename="bitmap.svg"
   inkscape:export-xdpi="96"
   inkscape:export-ydpi="96"
   xmlns:inkscape="http://www.inkscape.org/namespaces/inkscape"
   xmlns:sodipodi="http://sodipodi.sourceforge.net/DTD/sodipodi-0.dtd"
   xmlns="http://www.w3.org/2000/svg"
   xmlns:svg="http://www.w3.org/2000/svg"><sodipodi:namedview
     id="namedview1"
     pagecolor="#ffffff"
     bordercolor="#000000"
     borderopacity="0.25"
     inkscape:showpageshadow="2"
     inkscape:pageopacity="0.0"
     inkscape:pagecheckerboard="0"
     inkscape:deskcolor="#d1d1d1"
     inkscape:document-units="mm"><inkscape:page
       x="0"
       y="0"
       width="210"
       height="297"
       id="page2"
       margin="0"
       bleed="0" /></sodipodi:namedview><defs
    <linearGradient id="logoGradient" x1="0%" y1="0%" x2="100%" y2="100%">
      <stop offset="0%" style="stop-color:#8B5CF6;stop-opacity:1" />
      <stop offset="50%" style="stop-color:#F7B42C;stop-opacity:1" />
      <stop offset="100%" style="stop-color:#60A5FA;stop-opacity:1" />
    </linearGradient>
     id="defs1" /><g
     inkscape:label="Layer 1"
     inkscape:groupmode="layer"
     id="layer1"><path
       style="fill:url(#logoGradient)"
       d="m 49.598395,196.48247 c -0.08147,-0.19546 -0.115907,-22.82903 -0.07653,-50.29682 l 0.0716,-49.941448 10.616053,-0.06668 10.616054,-0.06667 4.876969,5.023158 c 2.682334,2.76273 6.754536,6.97788 9.049338,9.36699 5.828239,6.06776 17.430471,18.0859 20.564341,21.3015 4.53968,4.65808 12.2947,12.68471 16.7508,17.33751 2.36152,2.46575 8.50191,8.8639 13.64532,14.21811 l 9.35164,9.73493 0.0742,-7.03585 0.0742,-7.03586 -2.49671,-2.5958 c -2.54309,-2.64401 -8.82011,-9.14594 -15.72695,-16.29045 -2.1111,-2.18374 -3.83837,-4.16919 -3.83837,-4.4121 0,-0.41264 0.5365,-0.43101 8.16525,-0.2795 4.49088,0.0892 14.47811,0.16343 22.19384,0.16499 l 14.02859,0.003 -0.0709,30.51269 -0.0709,30.5127 -14.24493,0.066 -14.24493,0.066 -2.36187,-2.48662 c -1.29903,-1.36764 -3.87058,-4.03823 -5.71455,-5.93465 -1.84398,-1.89641 -6.11631,-6.30547 -9.49406,-9.79789 -3.37776,-3.49243 -6.76948,-6.99226 -7.53715,-7.7774 -0.76767,-0.78515 -4.09658,-4.22887 -7.39757,-7.65272 -3.30099,-3.42385 -6.639708,-6.85736 -7.419368,-7.63001 -0.779667,-0.77266 -6.746575,-6.95654 -13.259796,-13.74196 C 79.208785,134.9622 73.476753,128.9998 72.984157,128.49785 l -0.895629,-0.91265 -0.01162,34.46215 -0.01162,34.46215 h -9.030373 c -4.966705,0 -9.988437,0.0739 -11.159404,0.16427 -1.687179,0.13018 -2.159773,0.0905 -2.277159,-0.1911 z M 165.6234,195.55379 c -0.30509,-0.38539 -2.83971,-3.05127 -5.63249,-5.92418 -7.92055,-8.1478 -9.8308,-10.12777 -16.34776,-16.94442 -5.08089,-5.31455 -14.7125,-15.35324 -23.96736,-24.98034 -4.77715,-4.96929 -12.37375,-12.82222 -16.49646,-17.0531 -2.46294,-2.52756 -6.849021,-7.06079 -9.746838,-10.07384 C 81.051484,107.70457 78.633547,105.19622 74.686663,101.13107 l -4.161361,-4.286045 -4.324538,-0.01474 c -2.378496,-0.0081 -6.931134,3.4e-5 -10.116974,0.01809 l -5.792437,0.03283 v 49.559245 49.55924 h 10.294501 c 8.482408,0 10.351584,-0.0628 10.61879,-0.35666 0.244483,-0.26889 0.285367,-8.82813 0.166133,-34.78065 -0.131527,-28.6282 -0.09535,-34.42399 0.214904,-34.42399 0.454708,0 1.610391,1.1629 14.306982,14.39639 5.512703,5.74581 12.483553,12.96948 15.490777,16.0526 3.00722,3.08312 7.28214,7.49088 9.49982,9.79501 2.21768,2.30414 5.09991,5.29267 6.40495,6.64118 1.30504,1.34851 3.31495,3.42623 4.46646,4.61715 1.15151,1.19092 4.4176,4.55689 7.25799,7.47994 2.84039,2.92305 6.26355,6.47046 7.60703,7.88313 l 2.4427,2.5685 3.97784,0.13809 c 2.18781,0.0759 8.28884,0.16195 13.55785,0.1911 l 9.58002,0.053 z m 1.10265,-29.56985 c 0.0308,-16.28928 0.005,-29.66312 -0.0567,-29.71963 -0.0619,-0.0565 -9.59637,-0.13227 -21.18767,-0.16834 -14.9096,-0.0464 -21.07509,0.0147 -21.07509,0.20876 0,0.15089 1.63304,1.96617 3.62899,4.03395 1.99595,2.06777 5.74356,5.94917 8.32803,8.62533 2.58446,2.67615 5.75634,5.96989 7.04862,7.31942 l 2.3496,2.45368 0.003,7.61105 0.003,7.61105 5.65009,5.88467 c 3.10755,3.23657 7.72281,8.03671 10.25613,10.66698 2.53332,2.63028 4.65052,4.89112 4.7049,5.0241 0.0544,0.13298 0.14223,0.20219 0.19524,0.15381 0.053,-0.0484 0.12153,-13.41555 0.15228,-29.70483 z m -83.773729,9.24928 c 0,-19.13239 0.044,-21.27607 0.436752,-21.27607 0.240214,0 0.774095,0.36999 1.186403,0.82219 0.412308,0.45221 3.827318,4.02754 7.588913,7.94517 3.761594,3.91763 7.404543,7.71435 8.095451,8.43717 0.69091,0.72281 3.39172,3.4827 6.0018,6.13309 8.14341,8.26914 17.86176,18.47213 17.95609,18.85152 0.0775,0.31162 -2.8371,0.36301 -20.58758,0.36301 H 82.952321 Z m 38.885539,19.04655 c -11.17159,-11.65045 -13.84857,-14.4249 -15.18001,-15.73271 -2.81996,-2.7699 -15.845079,-16.24946 -22.406741,-23.1885 l -0.722838,-0.76441 -0.0088,20.5329 c -0.0049,11.2931 0.07493,20.60935 0.177281,20.70277 0.102357,0.0934 9.09706,0.16987 19.988228,0.16987 h 19.80213 z m 0.33554,-77.47753 -18.14498,-0.0871 -2.48033,-2.59135 C 92.734461,104.91561 85.693695,97.647399 85.459196,97.515112 c -0.150506,-0.0849 -0.273647,-0.377305 -0.273647,-0.64978 0,-0.488734 0.555841,-0.49454 41.244941,-0.430868 l 41.24494,0.06454 v 10.192136 10.19213 l -13.67853,0.003 c -7.52318,0.002 -21.84376,-0.0362 -31.8235,-0.0841 z m 45.01962,-10.05326 c 0.06,-7.604168 0.001,-9.65057 -0.27916,-9.748 -0.19527,-0.06782 -18.50208,-0.09385 -40.68179,-0.05784 l -40.326748,0.06547 2.091925,2.165828 c 1.150559,1.191202 5.331932,5.518882 9.291939,9.617062 l 7.200014,7.45123 18.89163,0.0655 c 10.39039,0.036 24.48167,0.0655 31.31396,0.0655 h 12.42233 z"
       id="path1" /></g></svg>
